<?xml version="1.0" encoding="utf-8"?>
<!-- Generator: Adobe Illustrator 16.0.0, SVG Export Plug-In . SVG Version: 6.00 Build 0)  -->
<!DOCTYPE svg PUBLIC "-//W3C//DTD SVG 1.1//EN" "http://www.w3.org/Graphics/SVG/1.1/DTD/svg11.dtd">
<svg version="1.1" id="Layer_1" xmlns="http://www.w3.org/2000/svg" xmlns:xlink="http://www.w3.org/1999/xlink" x="0px" y="0px"
	 width="360px" height="317px" viewBox="0 0 360 317" enable-background="new 0 0 360 317" xml:space="preserve">
<g>
	<path fill-rule="evenodd" clip-rule="evenodd" fill="#FFFFFF" d="M179.958,294.935c-31.652,0-63.313,0.415-94.955-0.147
		c-20.842-0.37-35.782-16.716-35.829-37.808c-0.083-37.653-0.025-75.307-0.025-112.96c0-23.825-0.018-47.649,0.005-71.474
		c0.02-21.095,13.289-36.125,34.12-38.555c4.283-0.5,8.617-0.788,12.928-0.792c56.979-0.051,113.959-0.109,170.938,0.077
		c6.078,0.02,12.424,0.72,18.172,2.574c15.738,5.076,25.448,18.875,25.476,35.673c0.102,61.811,0.116,123.623-0.001,185.434
		c-0.041,21.36-15.053,37.468-36.373,37.868c-31.475,0.591-62.97,0.152-94.456,0.152
		C179.959,294.963,179.958,294.949,179.958,294.935z M283.41,164.347c0-30.485,0.016-60.97-0.009-91.455
		c-0.007-8.803-3.205-12.065-12.093-12.071c-60.803-0.037-121.606-0.035-182.41-0.003c-9.257,0.005-12.603,3.454-12.604,12.706
		c-0.008,60.47-0.007,120.94,0,181.41c0.001,9.95,3.12,13.051,13.192,13.053c60.47,0.012,120.94,0.013,181.41,0
		c9.295-0.002,12.508-3.278,12.511-12.686C283.418,224.983,283.411,194.665,283.41,164.347z"/>
	<path fill-rule="evenodd" clip-rule="evenodd" fill="#FFFFFF" d="M126.385,150.968c-8.278,0.064-12.365,2.643-14.848,7.779
		c-2.765,5.722-1.318,11.66,4.502,17.525c10.665,10.747,21.407,21.419,32.126,32.112c9.519,9.496,16.502,9.505,25.985,0.026
		c22.839-22.829,45.703-45.631,68.452-68.549c2.409-2.427,4.711-5.296,6.038-8.398c3.835-8.973-3.886-19.362-13.449-17.623
		c-4.229,0.77-8.685,3.464-11.823,6.528c-19.519,19.066-38.751,38.427-57.921,57.845c-3.129,3.17-5.161,3.638-8.43,0.143
		c-6.932-7.411-14.1-14.629-21.555-21.51C132.344,153.967,128.25,152.144,126.385,150.968z"/>
	<path fill-rule="evenodd" clip-rule="evenodd" fill="#FFFFFF" d="M126.385,150.968c1.865,1.176,5.959,2.999,9.078,5.878
		c7.455,6.881,14.623,14.099,21.555,21.51c3.269,3.495,5.301,3.027,8.43-0.143c19.17-19.418,38.403-38.779,57.921-57.845
		c3.138-3.064,7.594-5.759,11.823-6.528c9.563-1.739,17.284,8.65,13.449,17.623c-1.326,3.102-3.628,5.971-6.038,8.398
		c-22.749,22.918-45.613,45.72-68.452,68.549c-9.483,9.479-16.466,9.47-25.985-0.026c-10.72-10.693-21.461-21.365-32.126-32.112
		c-5.821-5.865-7.268-11.803-4.502-17.525C114.02,153.611,118.107,151.032,126.385,150.968z"/>
</g>
</svg>
