<?xml version="1.0" encoding="utf-8"?>
<!-- Generator: Adobe Illustrator 16.0.0, SVG Export Plug-In . SVG Version: 6.00 Build 0)  -->
<!DOCTYPE svg PUBLIC "-//W3C//DTD SVG 1.1//EN" "http://www.w3.org/Graphics/SVG/1.1/DTD/svg11.dtd">
<svg version="1.1" id="Layer_1" xmlns="http://www.w3.org/2000/svg" xmlns:xlink="http://www.w3.org/1999/xlink" x="0px" y="0px"
	 width="432px" height="432px" viewBox="0 0 432 432" enable-background="new 0 0 432 432" xml:space="preserve">
<circle fill="#FFFFFF" cx="215.917" cy="216.48" r="213.917"/>
<path fill="#808080" stroke="#808080" stroke-width="20" stroke-miterlimit="10" d="M132.938,214.343
	c43.987-43.963,87.965-87.933,131.914-131.933c1.648-1.652,3.188-3.478,4.464-5.428c3.981-6.097,4.411-12.388,0.802-18.896
	c-3.542-6.389-9.101-9.445-16.154-9.625c-5.77-0.146-10.498,2.625-14.497,6.62c-18.375,18.351-36.732,36.721-55.095,55.083
	c-30.55,30.551-61.105,61.098-91.647,91.659c-4.109,4.113-6.852,8.946-6.725,14.92c0.121,5.677,2.746,10.308,6.691,14.254
	c48.913,48.914,97.824,97.832,146.761,146.725c1.386,1.384,2.936,2.667,4.594,3.702c6.268,3.912,12.77,4.135,19.177,0.465
	c6.079-3.482,9.108-9.041,9.302-15.934c0.167-5.811-2.722-10.518-6.682-14.479c-44.279-44.312-88.6-88.587-132.92-132.859
	C132.283,217.978,132.299,214.983,132.938,214.343z"/>
</svg>
