<?xml version="1.0" encoding="utf-8"?>
<!-- Generator: Adobe Illustrator 16.0.0, SVG Export Plug-In . SVG Version: 6.00 Build 0)  -->
<!DOCTYPE svg PUBLIC "-//W3C//DTD SVG 1.1//EN" "http://www.w3.org/Graphics/SVG/1.1/DTD/svg11.dtd">
<svg version="1.1" id="Layer_1" xmlns="http://www.w3.org/2000/svg" xmlns:xlink="http://www.w3.org/1999/xlink" x="0px" y="0px"
	 width="432px" height="432px" viewBox="0 0 432 432" enable-background="new 0 0 432 432" xml:space="preserve">
<circle fill="#FFFFFF" cx="213.917" cy="217.48" r="213.917"/>
<path fill="#808080" stroke="#808080" stroke-width="20" stroke-miterlimit="10" d="M296.911,219.615
	c-44.32,44.272-88.641,88.548-132.919,132.859c-3.96,3.962-6.849,8.669-6.683,14.479c0.194,6.893,3.223,12.451,9.302,15.934
	c6.408,3.67,12.909,3.447,19.177-0.465c1.658-1.035,3.208-2.318,4.594-3.702c48.936-48.893,97.847-97.811,146.76-146.725
	c3.945-3.946,6.57-8.577,6.691-14.254c0.127-5.974-2.615-10.807-6.725-14.92c-30.542-30.561-61.098-61.107-91.647-91.659
	C227.1,92.8,208.742,74.431,190.367,56.08c-3.999-3.995-8.727-6.766-14.497-6.62c-7.054,0.181-12.613,3.236-16.155,9.625
	c-3.609,6.509-3.18,12.799,0.802,18.896c1.275,1.951,2.815,3.776,4.464,5.428c43.949,44,87.927,87.969,131.914,131.933
	C297.534,215.983,297.55,218.978,296.911,219.615z"/>
</svg>
