<?xml version="1.0" encoding="utf-8"?>
<!-- Generator: Adobe Illustrator 16.0.0, SVG Export Plug-In . SVG Version: 6.00 Build 0)  -->
<!DOCTYPE svg PUBLIC "-//W3C//DTD SVG 1.1//EN" "http://www.w3.org/Graphics/SVG/1.1/DTD/svg11.dtd">
<svg version="1.1" id="Layer_1" xmlns="http://www.w3.org/2000/svg" xmlns:xlink="http://www.w3.org/1999/xlink" x="0px" y="0px"
	 width="420px" height="420px" viewBox="0 0 420 420" enable-background="new 0 0 420 420" xml:space="preserve">
<g>
	<path fill-rule="evenodd" clip-rule="evenodd" fill="#4D4D4D" d="M224.907,283.288c-2.062,2.872-2.948,4.548-4.23,5.829
		c-26.757,26.742-53.621,53.379-80.32,80.18c-9.501,9.537-20.399,12.299-32.779,7.205c-3.857-1.587-7.327-4.603-10.377-7.577
		c-12.168-11.867-23.863-24.227-36.188-35.926c-12.37-11.743-13.159-30.534-0.098-43.35c27.001-26.493,53.516-53.482,80.26-80.238
		c1.283-1.284,2.845-2.289,4.562-3.65c-1.874-1.958-3.098-3.284-4.371-4.561c-26.822-26.914-53.488-53.985-80.559-80.646
		c-9.875-9.726-11.771-22.882-7.125-32.806c1.721-3.676,4.387-7.094,7.245-10.021c12.107-12.4,24.402-24.619,36.718-36.813
		c12.958-12.83,29.556-12.859,42.474-0.015c26.944,26.791,53.808,53.663,80.711,80.495c1.272,1.269,2.611,2.472,4.153,3.927
		c1.526-1.428,2.87-2.618,4.139-3.883c26.904-26.832,53.783-53.688,80.707-80.5c9.821-9.78,21.018-12.062,33.285-6.81
		c1.956,0.837,3.955,1.959,5.441,3.442c14.97,14.939,30.168,29.671,44.603,45.116c8.195,8.768,7.48,24.415-0.346,33.638
		c-2.903,3.422-6.15,6.561-9.322,9.747c-24.928,25.038-49.876,50.054-74.811,75.083c-1.274,1.279-2.489,2.619-4.224,4.451
		c13.944,13.781,27.711,27.313,41.394,40.929c14.41,14.343,28.778,28.729,43.093,43.167c10.212,10.3,12.448,21.06,7.117,33.633
		c-0.638,1.506-1.43,3.086-2.561,4.224c-15.261,15.348-30.251,30.991-46.046,45.773c-8.791,8.227-23.883,7.479-33.195-0.113
		c-2.061-1.681-4.058-3.458-5.941-5.334c-26.339-26.217-52.661-52.45-78.95-78.718C228.08,287.882,227.136,286.254,224.907,283.288z
		"/>
</g>
</svg>
