<?xml version="1.0" encoding="utf-8"?>
<!-- Generator: Adobe Illustrator 16.0.0, SVG Export Plug-In . SVG Version: 6.00 Build 0)  -->
<!DOCTYPE svg PUBLIC "-//W3C//DTD SVG 1.1//EN" "http://www.w3.org/Graphics/SVG/1.1/DTD/svg11.dtd">
<svg version="1.1" id="Layer_1" xmlns="http://www.w3.org/2000/svg" xmlns:xlink="http://www.w3.org/1999/xlink" x="0px" y="0px"
	 width="360px" height="317px" viewBox="0 0 360 317" enable-background="new 0 0 360 317" xml:space="preserve">
<g>
	<path fill-rule="evenodd" clip-rule="evenodd" fill="#FFFFFF" d="M172.599,307.948c-80.802,0.527-148.685-64.138-149.448-146.942
		C22.364,75.634,88.872,8.722,173.207,9.05c81.241,0.316,149.816,65.503,148.707,151.808
		C320.841,244.315,252.682,308.411,172.599,307.948z M190.702,270.641c9.373-2.979,17.646-4.925,25.368-8.179
		c36.074-15.201,57.792-42.485,66.73-80.372c1.044-4.426-0.306-5.728-4.5-5.687c-10.494,0.102-20.994-0.127-31.485,0.075
		c-6.875,0.133-12.136-2.53-15.205-8.508c-3.194-6.222-3.322-12.815,0.156-19.094c3.636-6.564,9.767-8.667,16.816-8.723
		c9.828-0.077,19.659-0.114,29.486-0.021c3.927,0.038,5.742-0.601,4.607-5.416c-8.847-37.534-30.462-64.5-65.965-79.802
		c-7.945-3.424-16.549-5.321-25.638-8.168c-0.18,3.358-0.354,5.143-0.358,6.928c-0.025,10.329,0.075,20.659-0.035,30.987
		c-0.107,10.025-7.765,17.163-18.175,17.165c-10.439,0.002-18.064-7.106-18.169-17.16c-0.108-10.328-0.009-20.658-0.036-30.987
		c-0.005-1.78-0.187-3.56-0.296-5.505c-1.263-0.064-2.08-0.238-2.853-0.121c-2.138,0.323-4.305,0.599-6.376,1.188
		c-44.449,12.635-72.047,41.38-82.692,86.413c-0.881,3.729,0.187,4.763,3.794,4.721c10.828-0.128,21.658-0.129,32.486-0.02
		c10.102,0.102,17.434,7.803,17.333,17.969c-0.111,11.142-6.747,18.048-17.458,18.091c-10.662,0.042-21.324,0.058-31.986,0.011
		c-3.632-0.016-5.106,1.134-4.182,5.116c8.884,38.277,30.76,65.827,67.227,81.095c7.683,3.217,15.939,5.063,24.696,7.778
		c0.155-3.286,0.308-5.071,0.312-6.856c0.025-10.496-0.129-20.994,0.06-31.486c0.179-9.895,7.264-15.893,17.591-16.451
		c12.412-0.671,18.554,8.542,18.71,16.366c0.144,7.161,0.037,14.327,0.039,21.491C190.703,258.601,190.702,263.721,190.702,270.641z
		"/>
</g>
</svg>
