<?xml version="1.0" encoding="utf-8"?>
<!-- Generator: Adobe Illustrator 16.0.0, SVG Export Plug-In . SVG Version: 6.00 Build 0)  -->
<!DOCTYPE svg PUBLIC "-//W3C//DTD SVG 1.1//EN" "http://www.w3.org/Graphics/SVG/1.1/DTD/svg11.dtd">
<svg version="1.1" id="Layer_1" xmlns="http://www.w3.org/2000/svg" xmlns:xlink="http://www.w3.org/1999/xlink" x="0px" y="0px"
	 width="360px" height="317px" viewBox="0 0 360 317" enable-background="new 0 0 360 317" xml:space="preserve">
<g>
	<path fill-rule="evenodd" clip-rule="evenodd" fill="#FFFFFF" d="M238.814,215.34c-11.462,13.007-9.269,28.106-7.276,42.767
		c1.527,11.234,12.204,19.461,23.838,20.215c9.367,0.608,9.356,0.609,9.94,10.107c0.12,1.946,0.355,3.885,0.568,6.155
		c-1.627,0.073-2.97,0.187-4.312,0.188c-56.714,0.009-113.428,0.012-170.142,0.005c-10.644-0.001-16.359-5.917-15.775-16.447
		c1.122-20.258,8.824-37.459,24.087-51.039c12.507-11.129,27.084-17.403,43.912-17.546c23.821-0.204,47.646-0.062,71.469-0.061
		C223.347,209.685,231.087,211.615,238.814,215.34z"/>
	<path fill-rule="evenodd" clip-rule="evenodd" fill="#FFFFFF" d="M179.119,88.319c27.93-0.639,51.792,23.8,51.353,52.048
		c-0.412,26.421-22.017,50.62-50.979,50.791c-31.811,0.188-52.583-27.103-51.865-52.243
		C128.426,110.988,150.825,88.303,179.119,88.319z"/>
	<path fill-rule="evenodd" clip-rule="evenodd" fill="#FFFFFF" d="M131.112,190.795c-3.148,0.216-5.259,0.486-7.37,0.487
		c-33.956,0.026-67.912,0.039-101.867,0.008c-12.403-0.011-16.693-4.949-15.05-17.192c3.354-24.995,16.896-41.536,41.059-49.066
		c3.622-1.128,7.492-1.951,11.264-2.023c15.597-0.3,31.312-2.185,46.593,2.967c3.161,1.066,4.723,2.368,4.362,6.13
		c-2.037,21.296,3.854,40.019,18.755,55.663C129.463,188.406,129.92,189.184,131.112,190.795z"/>
	<path fill-rule="evenodd" clip-rule="evenodd" fill="#FFFFFF" d="M126.681,61.77c0.016,23.282-19.263,42.792-42.302,42.81
		c-23.784,0.018-43.458-19.407-43.369-42.82c0.089-23.44,19.581-42.915,42.889-42.852C107.323,18.971,126.665,38.35,126.681,61.77z"
		/>
	<path fill-rule="evenodd" clip-rule="evenodd" fill="#FFFFFF" d="M227.908,190.822c4.591-6.823,9.479-12.801,12.942-19.514
		c6.372-12.352,9.371-25.621,7.195-39.617c-0.496-3.193,0.833-4.695,3.482-5.385c4.737-1.233,9.504-3.077,14.303-3.219
		c17.556-0.523,35.274-2.527,52.232,4.607c19.858,8.355,34.17,30.418,33.339,51.922c-0.33,8.546-8.522,14.133-16.623,11.221
		c-0.999-0.359-1.99-1.386-2.501-2.357c-4.879-9.277-12.756-14.117-22.963-14.598c-7.46-0.351-15.015-0.026-22.449,0.751
		c-8.37,0.875-14.447,5.751-18.267,13.165c-1.409,2.734-3.166,3.618-6.155,3.567c-9.829-0.169-19.663-0.042-29.495-0.085
		C231.303,191.271,229.658,190.988,227.908,190.822z"/>
	<path fill-rule="evenodd" clip-rule="evenodd" fill="#FFFFFF" d="M316.882,276.003c0.001,3.38,0.034,6.761-0.006,10.14
		c-0.069,5.859-2.859,8.595-8.827,8.634c-5.225,0.034-10.449,0.026-15.673,0c-6.022-0.03-9.057-2.892-9.171-8.963
		c-0.132-7.066-0.172-14.14,0.024-21.202c0.091-3.28-1.128-4.254-4.278-4.17c-6.756,0.18-13.52,0.098-20.28,0.041
		c-6.934-0.058-9.789-2.935-9.81-9.756c-0.017-5.225-0.06-10.449,0.008-15.673c0.071-5.393,2.88-8.254,8.211-8.309
		c6.914-0.07,13.841-0.263,20.739,0.079c4.442,0.221,5.569-1.566,5.419-5.631c-0.241-6.599-0.145-13.213-0.041-19.818
		c0.095-6.021,2.512-8.944,8.472-9.358c5.65-0.392,11.382-0.394,17.023,0.079c6.335,0.53,8.16,2.953,8.184,9.326
		c0.025,6.761,0.145,13.525-0.05,20.281c-0.11,3.828,1.403,5.184,5.158,5.082c6.909-0.188,13.827-0.092,20.742-0.045
		c5.664,0.04,8.132,1.805,8.6,7.351c0.514,6.094,0.575,12.281,0.151,18.38c-0.388,5.595-3.435,7.915-9.293,8
		c-6.913,0.101-13.831,0.136-20.742-0.023c-3.317-0.076-4.806,1.015-4.608,4.496C317.043,268.618,316.881,272.315,316.882,276.003z"
		/>
	<path fill-rule="evenodd" clip-rule="evenodd" fill="#FFFFFF" d="M325.364,62.019c1.012,19.489-16.17,42.675-42.723,42.616
		c-26.024-0.058-42.951-23.274-42.502-43.539c0.435-19.588,16.317-42.263,42.951-42.144
		C309.015,19.068,326.356,41.306,325.364,62.019z"/>
</g>
</svg>
