<?xml version="1.0" encoding="utf-8"?>
<!-- Generator: Adobe Illustrator 16.0.0, SVG Export Plug-In . SVG Version: 6.00 Build 0)  -->
<!DOCTYPE svg PUBLIC "-//W3C//DTD SVG 1.1//EN" "http://www.w3.org/Graphics/SVG/1.1/DTD/svg11.dtd">
<svg version="1.1" id="Layer_1" xmlns="http://www.w3.org/2000/svg" xmlns:xlink="http://www.w3.org/1999/xlink" x="0px" y="0px"
	 width="360px" height="317px" viewBox="0 0 360 317" enable-background="new 0 0 360 317" xml:space="preserve">
<g>
	<path fill-rule="evenodd" clip-rule="evenodd" fill="#FFFFFF" d="M129.977,206.036c-10.171,0-19.61-0.117-29.04,0.139
		c-1.256,0.034-2.695,1.777-3.652,3.031c-6.063,7.945-12.106,15.908-17.975,23.996c-5.106,7.038-11.867,10.376-20.525,10.245
		c-7.83-0.119-15.667,0.1-23.496-0.06c-15.313-0.313-24.841-13.613-20.388-28.295c5.309-17.504,10.665-34.994,15.872-52.528
		c0.532-1.793,0.702-3.997,0.179-5.753c-5.267-17.691-10.654-35.347-16.129-52.975c-4.433-14.273,5.272-27.829,20.134-27.892
		c8.665-0.037,17.333,0.123,25.996-0.039c7.473-0.14,13.161,3.015,17.531,8.814c6.21,8.241,12.169,16.679,18.625,24.72
		c1.504,1.873,4.521,3.356,6.939,3.512c7.136,0.46,14.321,0.107,21.486,0.19c3.582,0.042,4.672-0.904,3.434-4.76
		c-7.27-22.646-14.507-45.308-21.302-68.099c-4.464-14.972,3.1-27.785,18.374-29.749c10.465-1.346,21.3-0.772,31.886,0.039
		c10.694,0.82,18.16,7.445,23.805,16.297c17.446,27.356,35.023,54.629,52.34,82.067c2.105,3.335,4.394,4.311,8.097,4.253
		c12.329-0.191,24.708-0.749,36.984,0.077c22.676,1.525,44.047,7.396,61.099,23.563c13.235,12.547,12.783,32.542-0.064,45.531
		c-11.386,11.511-25.68,16.881-40.862,20.61c-18.377,4.514-37.123,2.778-55.731,2.798c-5.222,0.006-7.99,1.812-10.678,6.072
		c-17.32,27.442-34.875,54.737-52.452,82.016c-6.312,9.796-15.402,14.919-27.146,15.006c-8.165,0.061-16.332,0.073-24.496-0.012
		c-15.377-0.159-25.981-14.151-21.53-28.845c6.941-22.913,14.229-45.721,21.349-68.579
		C129.11,209.914,129.409,208.348,129.977,206.036z M135.053,281.72c5.805,0,10.567-0.115,15.321,0.037
		c3.699,0.118,6.047-1.264,8.104-4.505c18.632-29.371,37.679-58.481,56.052-88.011c5.087-8.176,11.671-11.098,20.679-10.997
		c14.496,0.163,28.996,0.147,43.492,0.011c13.645-0.128,26.203-4.28,37.763-11.321c8.149-4.964,8.359-8.56,0.442-13.988
		c-11.948-8.194-25.529-12.133-39.907-12.556c-14.818-0.436-29.663-0.308-44.488-0.006c-7.625,0.155-12.919-2.71-16.978-9.13
		c-17.248-27.29-34.735-54.429-52.048-81.678c-8.21-12.923-8.118-12.897-23.334-12.35c-3.979,0.143-4.743,1.267-3.487,5.155
		c8.581,26.568,16.959,53.202,25.337,79.835c2.969,9.438-2.32,17.612-12.171,17.789c-19.151,0.344-38.32,0.341-57.465-0.166
		c-3.443-0.091-7.729-2.506-10.029-5.208c-7.003-8.227-13.288-17.072-19.731-25.766c-4.579-6.177-11.326-7.961-18.828-4.533
		c0.25,1.197,0.418,2.501,0.796,3.741c4.023,13.196,8.351,26.308,11.994,39.607c1.496,5.461,3.127,11.688,1.921,16.927
		c-3.012,13.086-7.646,25.797-11.555,38.681c-1.18,3.89-2.116,7.854-3.242,12.075c8.516,1.434,15.128,1.504,20.138-6.525
		c5.353-8.579,11.882-16.476,18.412-24.239c2.156-2.563,5.839-5.212,8.948-5.37c15.111-0.771,30.265-0.785,45.405-0.897
		c4.808-0.036,9.688,0.03,14.417,0.784c9.517,1.519,13.826,8.818,10.965,17.951c-3.229,10.306-6.547,20.584-9.821,30.876
		C146.616,245.354,141.081,262.766,135.053,281.72z"/>
</g>
</svg>
