<?xml version="1.0" encoding="utf-8"?>
<!-- Generator: Adobe Illustrator 16.0.0, SVG Export Plug-In . SVG Version: 6.00 Build 0)  -->
<!DOCTYPE svg PUBLIC "-//W3C//DTD SVG 1.1//EN" "http://www.w3.org/Graphics/SVG/1.1/DTD/svg11.dtd">
<svg version="1.1" id="Layer_1" xmlns="http://www.w3.org/2000/svg" xmlns:xlink="http://www.w3.org/1999/xlink" x="0px" y="0px"
	 width="360px" height="317px" viewBox="0 0 360 317" enable-background="new 0 0 360 317" xml:space="preserve">
<g>
	<path fill-rule="evenodd" clip-rule="evenodd" fill="#FFFFFF" d="M20.994,86.448c0-12.327-0.33-24.665,0.079-36.978
		c0.58-17.438,9.888-28.854,25.959-34.814c5.749-2.132,11.75-3.677,17.734-5.062c8.468-1.959,16.763,2.999,19.689,11.372
		c3.071,8.789-0.077,18.054-7.948,21.852c-4.616,2.227-9.608,3.712-14.505,5.305c-2.962,0.964-4.201,2.573-4.186,5.803
		c0.111,23.662-0.289,47.332,0.16,70.985c0.528,27.806,25.174,51.253,52.952,52.53c28.622,1.316,49.86-16.788,56.403-36.874
		c1.88-5.771,3.142-12.002,3.244-18.046c0.378-22.323,0.05-44.657,0.239-66.985c0.037-4.376-1.247-6.743-5.621-7.842
		c-4.164-1.046-8.273-2.542-12.182-4.329c-8.759-4.006-12.059-12.631-8.82-22.216c3.106-9.19,10.847-13.679,20.36-11.373
		c6.282,1.523,12.637,3.102,18.591,5.552c14.386,5.921,23.504,16.287,23.878,32.457c0.535,23.137,0.964,46.288,0.731,69.426
		c-0.207,20.621-4.437,40.292-16.888,57.481c-13.409,18.511-31.196,30.678-53.116,36.727c-4.16,1.148-4.573,2.777-3.892,6.677
		c5.684,32.553,37.21,56.941,73.149,52.927c29.097-3.251,53.606-27.242,56.783-57.156c1.646-15.497,0.981-31.254,0.944-46.893
		c-0.004-1.816-2.298-4.302-4.163-5.334c-15.75-8.717-23.914-22.384-23.907-39.904c0.007-18.555,7.73-33.739,25.252-42.118
		c29.959-14.328,68.624,3.787,67.247,43.879c-0.588,17.134-8.825,30.074-24.139,38.075c-3.039,1.587-3.826,3.544-3.816,6.697
		c0.048,14.161,0.376,28.343-0.259,42.479c-2.139,47.624-37.851,84.149-76.643,93.934c-46.559,11.743-96.638-10.068-117.133-53.186
		c-4.917-10.344-7.143-22.036-9.966-33.27c-0.959-3.817-1.822-5.871-6.06-6.945c-37.573-9.524-64.523-39.796-68.972-78.461
		c-1.763-15.325-1.41-30.894-2.021-46.351C20.436,86.462,20.715,86.455,20.994,86.448z M282.771,140.021
		c11.479,0.053,19.296-7.526,19.358-18.767c0.062-11.411-7.591-19.228-18.86-19.264c-11.511-0.038-19.264,7.485-19.344,18.767
		C263.844,132.165,271.48,139.97,282.771,140.021z"/>
</g>
</svg>
