<?xml version="1.0" encoding="utf-8"?>
<!-- Generator: Adobe Illustrator 16.0.0, SVG Export Plug-In . SVG Version: 6.00 Build 0)  -->
<!DOCTYPE svg PUBLIC "-//W3C//DTD SVG 1.1//EN" "http://www.w3.org/Graphics/SVG/1.1/DTD/svg11.dtd">
<svg version="1.1" id="Layer_1" xmlns="http://www.w3.org/2000/svg" xmlns:xlink="http://www.w3.org/1999/xlink" x="0px" y="0px"
	 width="360px" height="317px" viewBox="0 0 360 317" enable-background="new 0 0 360 317" xml:space="preserve">
<g>
	<path fill-rule="evenodd" clip-rule="evenodd" fill="#FFFFFF" d="M194.673,89.763c-0.024,0.149,0.001,0.333-0.079,0.441
		c-5.447,7.348-5.446,7.346,1.294,14.076c1.857,1.854,3.785,3.646,5.526,5.603c3.003,3.375,2.906,7.666-0.097,10.817
		c-3.334,3.498-7.294,3.723-11.034,0.332c-3.083-2.795-5.9-5.882-8.881-8.793c-1.299-1.269-2.71-2.42-4.089-3.643
		c-7.724,7.812-15.176,15.349-23.063,23.325c3.892,3.95,8.028,8.003,11.995,12.215c4.248,4.51,3.526,9.819-1.619,12.798
		c-3.417,1.979-6.545,1.307-9.279-1.344c-3.435-3.331-6.656-6.899-10.267-10.021c-1.01-0.875-3.787-1.322-4.533-0.637
		c-7.254,6.661-14.249,13.604-21.826,20.959c4.78,4.856,9.002,9.071,13.134,13.374c2.625,2.732,3.343,5.914,1.304,9.277
		c-2.062,3.402-5.188,4.874-9.069,3.73c-1.539-0.453-3.008-1.543-4.208-2.664c-3.268-3.054-6.474-6.188-9.512-9.469
		c-1.966-2.123-3.573-2.059-5.321,0.071c-0.097,0.118-0.228,0.207-0.34,0.313c-13.606,12.92-13.606,12.92-13.606,31.663
		c0,6.947,0.092,13.896-0.042,20.84c-0.058,2.966,1.046,4.172,4.028,4.152c11.886-0.077,23.78,0.176,35.655-0.218
		c2.363-0.079,5.08-2.032,6.909-3.851c31.96-31.781,63.807-63.677,95.685-95.541c1.513-1.512,3.093-2.956,4.266-4.075
		c6.089,5.8,11.929,11.362,18.009,17.155c-1.126,1.236-2.206,2.52-3.386,3.701c-33.055,33.069-66.151,66.097-99.155,99.217
		c-6.156,6.178-13.498,8.94-22.045,8.95c-13.739,0.016-27.481,0.142-41.217-0.078c-4.319-0.069-7.493,1.032-10.55,4.272
		c-7.942,8.416-16.148,16.6-24.566,24.541c-2.58,2.434-5.985,4.598-9.37,5.428c-4.76,1.167-9.162-0.738-11.99-5.066
		c-3.081-4.717-3.302-9.572,0.062-14.257c1.432-1.995,3.092-3.853,4.823-5.6c7.819-7.894,15.58-15.852,23.626-23.508
		c2.848-2.71,3.826-5.524,3.772-9.349c-0.188-13.428,0.008-26.861-0.1-40.291c-0.08-9.917,3.165-18.129,10.358-25.252
		c32.353-32.039,64.47-64.316,96.673-96.506c5.034-5.032,4.971-4.964,10.226,0.121c4.188,4.052,8.56,7.915,12.85,11.861
		C195.307,89.141,194.99,89.452,194.673,89.763z"/>
	<path fill-rule="evenodd" clip-rule="evenodd" fill="#FFFFFF" d="M239.574,71.226c6.322-6.62,12.458-12.895,18.339-19.401
		c0.696-0.77,0.514-3.159-0.176-4.179c-1.359-2.01-3.396-3.552-5.088-5.347c-5.506-5.84-5.911-13.169-1.042-18.232
		c5.276-5.487,12.81-5.396,18.898,0.516c7.746,7.522,15.318,15.223,22.953,22.858c3.599,3.599,7.372,7.05,10.714,10.876
		c7.241,8.288,3.778,18.973-6.844,21.354c-4.471,1.002-8.068-1.067-11.257-3.953c-8.216-7.435-8.208-7.446-16.174,0.501
		c-3.167,3.159-6.203,6.465-9.529,9.447c-2.707,2.428-2.668,4.223-0.033,6.767c7.876,7.603,15.543,15.423,23.276,23.173
		c1.196,1.199,2.406,2.405,3.449,3.733c4.703,5.99,4.514,13.539-0.387,18.004c-5.147,4.691-12.784,4.302-18.292-1.128
		c-8.787-8.663-17.473-17.429-26.201-26.152c-16.802-16.793-33.626-33.563-50.389-50.396c-4.731-4.752-5.618-10.781-2.646-16.08
		c2.532-4.515,8.147-7.167,13.536-5.48c3.088,0.967,6.113,2.976,8.487,5.23c7.936,7.538,15.559,15.405,23.318,23.13
		C235.789,67.765,237.17,68.983,239.574,71.226z"/>
</g>
</svg>
