<?xml version="1.0" encoding="utf-8"?>
<!-- Generator: Adobe Illustrator 16.0.0, SVG Export Plug-In . SVG Version: 6.00 Build 0)  -->
<!DOCTYPE svg PUBLIC "-//W3C//DTD SVG 1.1//EN" "http://www.w3.org/Graphics/SVG/1.1/DTD/svg11.dtd">
<svg version="1.1" id="Layer_1" xmlns="http://www.w3.org/2000/svg" xmlns:xlink="http://www.w3.org/1999/xlink" x="0px" y="0px"
	 width="360px" height="317px" viewBox="0 0 360 317" enable-background="new 0 0 360 317" xml:space="preserve">
<g>
	<path fill-rule="evenodd" clip-rule="evenodd" fill="#FFFFFF" d="M96.415,133.832c0-23.486-0.09-46.972,0.038-70.457
		c0.065-11.862,3.146-22.527,12.218-31.094c8.235-7.777,18.239-10.341,28.867-10.392c47.469-0.227,94.941-0.198,142.411-0.047
		c18.677,0.059,33.01,9.321,38.361,24.873c1.805,5.247,2.697,11.06,2.734,16.623c0.236,35.81,0.114,71.622,0.122,107.433
		c0.003,12.902-3.915,23.943-13.681,33.017c-10.727,9.966-20.847,20.589-31.132,31.024c-7.248,7.354-15.93,11.474-26.236,11.507
		c-38.642,0.126-77.287,0.433-115.923-0.018c-22.508-0.263-37.537-16.859-37.734-40.514
		C96.26,181.804,96.415,157.817,96.415,133.832z M189.5,115.226c-9.52,0-18.318-0.082-27.114,0.026
		c-6.785,0.083-10.012,3.366-10.138,10.195c-0.104,5.66-0.079,11.325-0.009,16.986c0.095,7.695,3.214,10.832,11.02,10.945
		c7.326,0.107,14.658,0.144,21.982-0.024c3.223-0.074,4.406,0.988,4.321,4.292c-0.195,7.489-0.145,14.988-0.03,22.481
		c0.107,7.047,3.466,10.459,10.414,10.609c5.826,0.126,11.659,0.126,17.485-0.001c7.22-0.158,10.219-3.216,10.33-10.542
		c0.111-7.326,0.175-14.659-0.027-21.981c-0.103-3.74,1.307-4.969,4.971-4.866c7.322,0.206,14.657,0.177,21.981,0.014
		c7.144-0.159,10.484-3.378,10.722-10.375c0.204-5.989,0.236-11.998-0.016-17.983c-0.269-6.404-3.78-9.653-10.211-9.745
		c-7.493-0.106-14.994-0.202-22.48,0.029c-3.682,0.114-5.071-1.062-4.968-4.816c0.206-7.489,0.147-14.989,0.024-22.481
		c-0.112-6.86-3.248-10.089-10.107-10.341c-5.322-0.195-10.657-0.083-15.986-0.043c-8.798,0.067-12.115,3.343-12.154,12.021
		C189.471,97.936,189.5,106.246,189.5,115.226z"/>
	<path fill-rule="evenodd" clip-rule="evenodd" fill="#FFFFFF" d="M40.48,161.378c0.007-22.831-0.101-45.662,0.053-68.491
		c0.076-11.249,10.484-17.614,20.152-12.602c4.813,2.495,6.727,6.741,6.806,11.905c0.102,6.664,0.042,13.331,0.042,19.997
		c0.002,36.662-0.015,73.324,0.007,109.986c0.017,29.625,23.289,52.998,52.854,53.044c29.496,0.046,58.993-0.027,88.489,0.065
		c3.113,0.01,6.362,0.345,9.307,1.285c6.377,2.035,9.38,7.593,8.413,14.56c-0.887,6.39-5.554,10.813-12.114,11.188
		c-3.655,0.209-7.33,0.053-10.997,0.054c-27.996,0.001-55.993,0.011-83.989-0.001c-33.616-0.014-62.779-19.988-73.969-51.688
		c-2.992-8.476-4.54-17.811-4.84-26.815C39.999,203.056,40.473,182.209,40.48,161.378z"/>
</g>
</svg>
