<?xml version="1.0" encoding="utf-8"?>
<!-- Generator: Adobe Illustrator 16.0.0, SVG Export Plug-In . SVG Version: 6.00 Build 0)  -->
<!DOCTYPE svg PUBLIC "-//W3C//DTD SVG 1.1//EN" "http://www.w3.org/Graphics/SVG/1.1/DTD/svg11.dtd">
<svg version="1.1" id="Layer_1" xmlns="http://www.w3.org/2000/svg" xmlns:xlink="http://www.w3.org/1999/xlink" x="0px" y="0px"
	 width="360px" height="317px" viewBox="0 0 360 317" enable-background="new 0 0 360 317" xml:space="preserve">
<g>
	<path fill-rule="evenodd" clip-rule="evenodd" fill="#FFFFFF" d="M184.4,24.987c30.828,0,61.656-0.013,92.484,0.004
		c22.338,0.013,38.44,15.976,38.482,38.405c0.084,44.159,0.065,88.318-0.005,132.477c-0.017,10.443-3.731,19.439-11.226,26.89
		c-17.365,17.262-34.718,34.538-51.912,51.97c-8.267,8.382-18.112,11.545-29.735,11.483c-44.153-0.235-88.313,0.277-132.461-0.29
		c-21.579-0.277-36.278-16.61-36.303-38.369c-0.049-43.326-0.015-86.651-0.015-129.978c0-17.83-0.011-35.66,0.002-53.491
		C53.729,40.604,69.37,25,92.917,24.991C123.411,24.978,153.906,24.987,184.4,24.987z M80.852,155.573
		c0,30.328-0.009,60.655,0.005,90.983c0.004,9.124,3.271,12.536,12.195,12.543c41.492,0.032,82.985-0.031,124.477,0.092
		c3.918,0.012,5.186-1.091,5.124-5.086c-0.218-14.161-0.176-28.328-0.047-42.491c0.093-10.21,5.659-17.068,15.829-17.656
		c14.446-0.836,28.96-0.716,43.441-0.577c4.871,0.047,6.207-1.505,6.188-6.264c-0.161-40.825-0.085-81.651-0.098-122.477
		c-0.002-9.54-3.051-12.699-12.479-12.703c-60.655-0.026-121.311-0.027-181.966,0.002c-9.308,0.005-12.663,3.427-12.667,12.65
		C80.842,94.917,80.85,125.245,80.852,155.573z"/>
	<path fill-rule="evenodd" clip-rule="evenodd" fill="#FFFFFF" d="M114.173,81.119c7.49-0.034,13.357,5.771,13.362,13.22
		c0.005,7.958-5.629,13.728-13.405,13.728c-7.217,0-13.455-6.091-13.598-13.276C100.385,87.358,106.575,81.154,114.173,81.119z"/>
	<path fill-rule="evenodd" clip-rule="evenodd" fill="#FFFFFF" d="M127.533,216.751c-0.141,7.431-6.156,13.401-13.377,13.277
		c-7.521-0.13-13.809-6.58-13.505-13.851c0.328-7.852,6.199-13.312,14.044-13.059C122.339,203.364,127.68,209.035,127.533,216.751z"
		/>
	<path fill-rule="evenodd" clip-rule="evenodd" fill="#FFFFFF" d="M114.423,142.188c7.608,0.053,13.128,5.652,13.12,13.31
		c-0.008,7.861-5.865,13.671-13.591,13.483c-7.42-0.18-13.403-6.262-13.263-13.481C100.843,147.542,106.425,142.132,114.423,142.188
		z"/>
</g>
</svg>
