<?xml version="1.0" encoding="utf-8"?>
<!-- Generator: Adobe Illustrator 16.0.0, SVG Export Plug-In . SVG Version: 6.00 Build 0)  -->
<!DOCTYPE svg PUBLIC "-//W3C//DTD SVG 1.1//EN" "http://www.w3.org/Graphics/SVG/1.1/DTD/svg11.dtd">
<svg version="1.1" id="Layer_1" xmlns="http://www.w3.org/2000/svg" xmlns:xlink="http://www.w3.org/1999/xlink" x="0px" y="0px"
	 width="360px" height="317px" viewBox="0 0 360 317" enable-background="new 0 0 360 317" xml:space="preserve">
<g>
	<path fill-rule="evenodd" clip-rule="evenodd" fill="#FFFFFF" d="M169.963,307.963c-37.817,0-75.635,0.007-113.452-0.004
		c-11.352-0.004-17.191-6.125-16.784-17.439c1.57-43.615,37.64-75.699,77.845-74.914c36.138,0.705,72.3,0.112,108.451,0.16
		c37.145,0.05,69.652,28.973,74.19,65.911c0.366,2.976,0.935,5.938,1.102,8.924c0.607,10.839-5.574,17.357-16.401,17.364
		c-25.989,0.018-51.978,0.001-77.967-0.001C194.619,307.963,182.292,307.964,169.963,307.963z"/>
	<path fill-rule="evenodd" clip-rule="evenodd" fill="#FFFFFF" d="M135.226,23.174c5.068,10.08,10.142,20.169,15.215,30.258
		c0.521-0.159,1.041-0.318,1.561-0.477c0.116-1.73,0.325-3.459,0.332-5.19c0.033-8.329-0.083-16.66,0.04-24.987
		c0.103-7.018,3.786-11.874,10.653-13.061c4.521-0.781,9.337-0.925,13.875-0.297c7.706,1.066,11.838,6.34,11.931,14.221
		c0.097,8.161-0.028,16.325,0.025,24.487c0.011,1.692,0.377,3.381,0.579,5.072c0.424,0.064,0.849,0.129,1.273,0.193
		c4.95-10.032,9.901-20.063,15.089-30.576c9.339,4.97,16.588,11.347,22.824,18.974c9.108,11.138,14.043,24.051,15.958,38.168
		c0.374,2.757,1.427,3.854,4.119,4.623c6.968,1.989,11.037,8.088,10.25,14.518c-0.821,6.7-5.879,11.406-13.145,12.176
		c-1.154,0.123-2.328,0.091-3.493,0.091c-47.644,0.003-95.287-0.005-142.93,0.009c-6.625,0.001-12.729-1.016-15.919-7.858
		c-3.594-7.711-0.37-16.09,7.758-18.462c4.267-1.246,5.111-3.626,5.688-7.378c3.638-23.664,15.934-41.575,36.422-53.896
		C133.727,23.541,134.231,23.484,135.226,23.174z"/>
	<path fill-rule="evenodd" clip-rule="evenodd" fill="#FFFFFF" d="M97.196,130.986c49.149,0,97.848,0,146.558,0
		c-2.182,28.743-27.668,64.182-72.74,64.623C127.947,196.031,100.143,162.682,97.196,130.986z"/>
</g>
</svg>
