<?xml version="1.0" encoding="utf-8"?>
<!-- Generator: Adobe Illustrator 16.0.0, SVG Export Plug-In . SVG Version: 6.00 Build 0)  -->
<!DOCTYPE svg PUBLIC "-//W3C//DTD SVG 1.1//EN" "http://www.w3.org/Graphics/SVG/1.1/DTD/svg11.dtd">
<svg version="1.1" id="Layer_1" xmlns="http://www.w3.org/2000/svg" xmlns:xlink="http://www.w3.org/1999/xlink" x="0px" y="0px"
	 width="360px" height="317px" viewBox="0 0 360 317" enable-background="new 0 0 360 317" xml:space="preserve">
<g>
	<path fill-rule="evenodd" clip-rule="evenodd" fill="#FFFFFF" d="M201.918,55.226c6.83-0.002,13.664-0.135,20.489,0.05
		c3.809,0.103,5.435-1.191,5.314-5.179c-0.215-7.157-0.019-14.325-0.058-21.488c-0.045-8.25,3.279-14.661,10.827-18.145
		c7.744-3.575,15.397-2.835,21.91,2.941c16.806,14.905,33.454,29.987,50.167,44.996c10.274,9.226,20.629,18.363,30.805,27.697
		c9.478,8.694,9.211,23.323-0.283,31.829c-24.038,21.535-48.033,43.118-72.058,64.667c-3.096,2.777-6.21,5.539-9.422,8.178
		c-6.63,5.446-14.22,5.513-21.657,2.642c-7.086-2.735-10.165-8.751-10.218-16.267c-0.059-8.162,0.11-16.332-0.234-24.48
		c-0.064-1.525-2.091-4.262-3.192-4.251c-14.449,0.14-29.212-1.067-43.266,1.508c-21.994,4.03-32.79,24.77-28.347,45.983
		c1.144,5.46,6.463,10.104,10.076,14.964c1.762,2.37,4.423,4.125,5.946,6.606c2.398,3.909,2.138,8.186-1.118,11.546
		c-3.537,3.65-8.091,4.673-12.827,2.56c-13.037-5.818-24.787-13.619-34.534-24.098c-10.814-11.626-19.197-24.668-22.015-40.691
		c-5.448-30.989,1.861-58.404,23.208-81.702c20.413-22.277,46.516-30.451,75.99-29.868
		C198.919,55.254,200.419,55.228,201.918,55.226z M254.703,157.161c2.018-1.126,2.816-1.402,3.398-1.921
		c18.881-16.834,37.726-33.71,56.625-50.525c2.529-2.25,2.178-3.913-0.208-6.037c-18.278-16.265-36.474-32.622-54.74-48.901
		c-1.207-1.075-2.774-1.743-4.299-2.677c-0.418,1.084-0.638,1.392-0.641,1.701c-0.06,7.162-0.088,14.325-0.138,21.487
		c-0.066,9.446-2.847,12.284-12.196,12.299c-17.494,0.029-34.99-0.115-52.482,0.086c-5.121,0.059-10.384,0.443-15.322,1.701
		c-34.877,8.884-55.205,39.056-50.512,74.729c0.316,2.402,1.542,4.684,2.751,8.203c11.256-27.703,30.419-43.585,58.733-45.818
		c19.87-1.567,39.944-0.656,59.927-0.596c5.344,0.016,8.074,2.947,8.803,8.402c0.351,2.625,0.274,5.314,0.289,7.975
		C254.728,143.527,254.703,149.785,254.703,157.161z"/>
	<path fill-rule="evenodd" clip-rule="evenodd" fill="#FFFFFF" d="M161.391,307.371c-32.657,0-65.314,0.003-97.971-0.001
		c-24.238-0.003-42.248-17.973-42.263-42.337c-0.04-64.98-0.042-129.961,0.002-194.942c0.017-24.825,17.78-42.571,42.49-42.596
		c12.496-0.012,24.995-0.106,37.486,0.143c6.91,0.137,10.863,3.594,12.161,9.684c1.421,6.671-0.92,12.832-6.521,15.236
		c-2.952,1.268-6.432,1.715-9.689,1.784c-10.326,0.217-20.659,0.048-30.989,0.091c-12.255,0.051-17.802,5.516-17.807,17.641
		c-0.021,63.481-0.021,126.963-0.001,190.444c0.004,12.218,5.47,17.691,17.722,17.696c63.648,0.026,127.296,0.025,190.944,0.001
		c11.857-0.004,17.508-5.503,17.672-17.382c0.159-11.495,0.027-22.993,0.042-34.489c0.007-5.485,2.237-9.884,7.313-12.065
		c4.801-2.063,10.099-2.197,14.124,1.449c2.388,2.163,4.875,5.765,4.895,8.736c0.109,16.445,0.858,33.077-1.273,49.295
		c-2.409,18.326-19.827,31.516-38.366,31.581C228.038,307.457,194.714,307.372,161.391,307.371z"/>
</g>
</svg>
