<?xml version="1.0" encoding="utf-8"?>
<!-- Generator: Adobe Illustrator 16.0.0, SVG Export Plug-In . SVG Version: 6.00 Build 0)  -->
<!DOCTYPE svg PUBLIC "-//W3C//DTD SVG 1.1//EN" "http://www.w3.org/Graphics/SVG/1.1/DTD/svg11.dtd">
<svg version="1.1" id="Layer_1" xmlns="http://www.w3.org/2000/svg" xmlns:xlink="http://www.w3.org/1999/xlink" x="0px" y="0px"
	 width="360px" height="317px" viewBox="0 0 360 317" enable-background="new 0 0 360 317" xml:space="preserve">
<g>
	<path fill-rule="evenodd" clip-rule="evenodd" fill="#FFFFFF" d="M76.333,157.499C76.332,121,76.326,84.5,76.333,48
		c0.005-23.342,16.205-39.565,39.592-39.589c31.167-0.031,62.333-0.01,93.499-0.006c10.83,0.001,19.999,3.617,27.73,11.501
		c17.029,17.365,34.211,34.586,51.627,51.562c8.041,7.837,11.844,17.195,11.864,28.087c0.106,56,0.163,112-0.012,167.999
		c-0.063,20.389-10.347,33.731-29.275,38.947c-2.676,0.737-5.592,0.832-8.397,0.835c-49.5,0.048-99,0.042-148.499,0.033
		c-21.619-0.003-38.028-16.173-38.096-37.873C76.25,232.165,76.334,194.832,76.333,157.499z M103.647,157.935
		c0,36.829-0.019,73.659,0.014,110.488c0.007,8.326,3.235,11.761,11.349,11.77c48.994,0.055,97.988,0.06,146.983-0.009
		c8.175-0.011,11.088-3.12,11.091-11.297c0.021-54.161-0.04-108.321,0.11-162.481c0.012-4.381-1.508-5.287-5.486-5.231
		c-13.996,0.196-27.996,0.146-41.994,0.052c-10.71-0.072-17.731-7.242-17.753-17.951c-0.028-13.499-0.002-26.997-0.007-40.496
		c-0.003-6.986-0.01-7.002-6.811-7.003c-27.997-0.006-55.994-0.01-83.991,0.001c-10.756,0.004-13.506,2.791-13.508,13.671
		C103.639,85.609,103.643,121.772,103.647,157.935z"/>
	<path fill-rule="evenodd" clip-rule="evenodd" fill="#FFFFFF" d="M201.775,210.002c0,11.993,0.018,23.986-0.006,35.979
		c-0.018,9.143-5.111,14.622-13.482,14.576c-7.749-0.042-13.188-5.747-13.255-14.436c-0.134-17.322-0.045-34.646-0.046-51.97
		c0-6.996-0.098-13.994,0.034-20.988c0.167-8.861,5.893-14.898,13.67-14.653c8.193,0.259,13.073,5.845,13.082,15.012
		C201.784,185.682,201.775,197.842,201.775,210.002z"/>
	<path fill-rule="evenodd" clip-rule="evenodd" fill="#FFFFFF" d="M253.643,219.007c0.003,8.826,0.066,17.652-0.014,26.477
		c-0.081,8.979-5.358,14.917-13.263,15.12c-7.874,0.203-13.927-6.066-13.994-14.999c-0.135-17.983-0.142-35.97-0.003-53.953
		c0.065-8.426,5.798-14.15,13.604-14.141c8.105,0.009,13.458,5.348,13.627,14.021C253.777,200.687,253.639,209.849,253.643,219.007z
		"/>
	<path fill-rule="evenodd" clip-rule="evenodd" fill="#FFFFFF" d="M150.303,227.564c0,6.653,0.504,13.355-0.126,19.948
		c-0.812,8.493-5.609,12.839-12.977,13.047c-7.129,0.201-13.177-4.232-13.588-12.471c-0.687-13.745-0.37-27.602,0.554-41.342
		c0.473-7.025,6.039-10.599,12.951-10.534c6.751,0.063,11.843,3.934,12.791,10.935c0.911,6.727,0.774,13.595,1.098,20.401
		C150.772,227.555,150.538,227.56,150.303,227.564z"/>
</g>
</svg>
