<?xml version="1.0" encoding="utf-8"?>
<!-- Generator: Adobe Illustrator 16.0.0, SVG Export Plug-In . SVG Version: 6.00 Build 0)  -->
<!DOCTYPE svg PUBLIC "-//W3C//DTD SVG 1.1//EN" "http://www.w3.org/Graphics/SVG/1.1/DTD/svg11.dtd">
<svg version="1.1" id="Layer_1" xmlns="http://www.w3.org/2000/svg" xmlns:xlink="http://www.w3.org/1999/xlink" x="0px" y="0px"
	 width="360px" height="317px" viewBox="0 0 360 317" enable-background="new 0 0 360 317" xml:space="preserve">
<g>
	<path fill-rule="evenodd" clip-rule="evenodd" fill="#FFFFFF" d="M121.413,265.713c0,5.646,0.104,11.225-0.024,16.8
		c-0.176,7.62-4.3,13.321-11.03,15.569c-6.542,2.185-14.942,0.341-18.418-5.199c-2.203-3.512-3.053-8.065-3.744-12.277
		c-0.605-3.689-0.309-7.562-0.101-11.336c0.189-3.44-1.248-4.532-4.534-4.384c-4.384,0.199-8.789,0.181-13.175,0.017
		c-9.201-0.345-15.376-6.292-16.445-15.628c-0.844-7.373,4.553-15.72,12.019-17.064c5.293-0.953,10.872-0.73,16.292-0.441
		c4.718,0.252,6.256-1.546,5.846-6.04c-0.383-4.197,1.058-9.378-0.938-12.367c-1.777-2.659-7.161-2.916-10.957-4.217
		c-34.055-11.676-55.524-35.172-62.784-70.227C3.242,89.773,33.514,42.672,80.934,30.179
		c45.649-12.027,91.206,10.546,109.327,53.095c21.979,51.607-3.493,108.086-56.76,125.965c-1.998,0.671-4.069,1.418-6.139,1.525
		c-4.913,0.254-6.144,2.699-6.043,7.373c0.291,13.53,0.101,13.483,13.683,13.572c3.289,0.021,6.797-0.146,9.818,0.894
		c7.944,2.736,12.104,10.647,10.554,18.855c-1.463,7.747-7.851,13.174-16.041,13.441c-5.447,0.179-10.9,0.14-16.349,0.218
		C122.701,265.122,122.421,265.322,121.413,265.713z M104.67,179.992c32.685,1.526,59.613-27.603,60.199-58.208
		c0.659-34.42-27.821-61.743-59.98-61.465c-33.211,0.288-60.487,26.877-60.284,59.853C44.823,155.363,74.179,181.307,104.67,179.992
		z"/>
	<path fill-rule="evenodd" clip-rule="evenodd" fill="#FFFFFF" d="M157.508,219.536c8.507-6.67,16.385-13.008,24.515-19.005
		c0.918-0.677,3.642,0.05,4.866,0.989c19.87,15.252,45.471,17.145,67.357,4.813c35.6-20.058,40.283-71.033,9.053-97.406
		c-13.354-11.277-28.614-15.818-45.884-14.07c-0.752,0.076-1.512,0.109-2.269,0.115c-0.442,0.003-0.886-0.088-1.075-0.108
		c-4.092-10.325-8.124-20.494-12.24-30.88c12.222-3.576,24.648-3.658,37.114-1.672c12.676,2.019,24.576,6.304,35.392,13.327
		c2.083,1.353,3.517,1.402,5.479-0.497c9.162-8.873,9.226-8.803,0.282-17.717c-2.897-2.888-5.728-5.843-8.678-8.676
		c-4.011-3.855-5.347-8.376-3.373-13.615c2.124-5.642,6.552-8.163,12.38-8.194c14.697-0.078,29.396-0.033,44.094-0.034
		c4.697,0,9.398-0.115,14.09,0.041c7.301,0.244,11.731,3.97,12.551,11.127c0.6,5.239,0.496,10.571,0.519,15.864
		c0.06,13.939,0.099,27.88-0.02,41.819c-0.049,5.913-0.931,11.508-7.394,14.316c-5.475,2.379-9.488,1.789-14.41-2.95
		c-4.802-4.623-9.544-9.315-14.129-14.152c-2.118-2.233-3.757-2.326-6.132-0.366c-8.873,7.323-8.67,7.133-3.33,17.421
		c9.768,18.815,13.446,38.68,9.587,59.776c-6.534,35.739-27.113,60.409-60.886,72.301c-34.496,12.147-66.483,5.361-94.207-19.12
		C159.54,221.904,158.511,220.607,157.508,219.536z"/>
</g>
</svg>
