<?xml version="1.0" encoding="utf-8"?>
<!-- Generator: Adobe Illustrator 16.0.0, SVG Export Plug-In . SVG Version: 6.00 Build 0)  -->
<!DOCTYPE svg PUBLIC "-//W3C//DTD SVG 1.1//EN" "http://www.w3.org/Graphics/SVG/1.1/DTD/svg11.dtd">
<svg version="1.1" id="Layer_1" xmlns="http://www.w3.org/2000/svg" xmlns:xlink="http://www.w3.org/1999/xlink" x="0px" y="0px"
	 width="360px" height="317px" viewBox="0 0 360 317" enable-background="new 0 0 360 317" xml:space="preserve">
<g>
	<path fill-rule="evenodd" clip-rule="evenodd" fill="#FFFFFF" d="M45.338,99.221c-0.35-15.115,3.82-28.094,16.706-36.664
		c6.145-4.088,13.389-6.586,20.259-9.511c32.124-13.672,64.295-27.232,96.437-40.861c5.018-2.127,10.098-2.328,15.053-0.228
		c37.185,15.757,74.383,31.485,111.467,47.478c14.52,6.262,21.386,18.114,21.515,33.596c0.193,23.265-4.012,45.982-9.862,68.403
		c-9.504,36.43-27.288,68.567-52.215,96.521c-18.935,21.233-41.938,37.396-68.382,48.116c-8.451,3.426-17.313,1.935-25.607-2.112
		c-39.152-19.103-69.345-47.604-90.969-85.472c-13.93-24.395-23.48-50.271-28.316-77.863
		C49.015,126.889,47.343,113.026,45.338,99.221z M299.954,93.106c0.536-3.705-2.514-7.619-8.568-10.182
		c-34-14.393-67.906-29.006-101.909-43.39c-1.742-0.737-4.349-0.685-6.107,0.057c-33.544,14.16-67.037,28.443-100.503,42.788
		c-8.724,3.739-10.209,6.27-9.514,15.771c1.718,23.475,5.549,46.593,13.15,68.914c16.736,49.15,46.391,87.577,93.381,111.451
		c4.35,2.209,8.432,2.479,12.834,0.164c17.348-9.121,33.688-19.816,47.278-33.95C279.856,203.278,295.948,152.09,299.954,93.106z"/>
	<path fill-rule="evenodd" clip-rule="evenodd" fill="#FFFFFF" d="M131.26,145.642c3.284,1.99,7.018,3.499,9.766,6.063
		c7.667,7.154,15.08,14.601,22.278,22.228c3.267,3.461,5.38,3.583,8.826,0.084c19.511-19.813,39.271-39.379,58.896-59.079
		c3.688-3.702,7.74-6.213,13.213-5.762c8.764,0.722,16.148,11.507,9.49,21.036c-1.135,1.624-2.542,3.08-3.949,4.488
		c-23.186,23.215-46.381,46.418-69.596,69.604c-9.06,9.048-15.82,9.079-24.749,0.158c-11.191-11.18-22.383-22.36-33.528-33.585
		c-4.239-4.269-6.68-9.105-4.277-15.301C119.957,149.575,124.172,146.649,131.26,145.642z"/>
</g>
</svg>
