<?xml version="1.0" encoding="utf-8"?>
<!-- Generator: Adobe Illustrator 16.0.0, SVG Export Plug-In . SVG Version: 6.00 Build 0)  -->
<!DOCTYPE svg PUBLIC "-//W3C//DTD SVG 1.1//EN" "http://www.w3.org/Graphics/SVG/1.1/DTD/svg11.dtd">
<svg version="1.1" id="Layer_1" xmlns="http://www.w3.org/2000/svg" xmlns:xlink="http://www.w3.org/1999/xlink" x="0px" y="0px"
	 width="360px" height="317px" viewBox="0 0 360 317" enable-background="new 0 0 360 317" xml:space="preserve">
<g>
	<path fill-rule="evenodd" clip-rule="evenodd" fill="#FFFFFF" d="M179.987,309.369C99.27,309.852,31.354,245.247,30.612,162.354
		c-0.763-85.35,65.75-152.226,150.127-151.879c81.186,0.333,149.767,65.509,148.642,151.874
		C328.298,245.499,260.298,309.886,179.987,309.369z M179.687,282.229c66.183,0.557,121.729-53.791,122.722-119.975
		c1.057-70.479-56.212-123.509-120.221-124.531c-68.077-1.087-123.805,53.82-124.7,120.537
		C56.552,227.971,114.286,282.625,179.687,282.229z"/>
	<path fill-rule="evenodd" clip-rule="evenodd" fill="#FFFFFF" d="M121.521,233.387c-10.887,0.092-17.595-9.123-14.022-18.581
		c10.218-27.045,20.884-53.921,30.987-81.009c2.921-7.833,7.753-12.491,15.566-15.408c26.297-9.821,52.408-20.142,78.58-30.295
		c6.046-2.346,11.824-2.347,16.653,2.459c4.807,4.783,5.028,10.439,2.628,16.612c-10.714,27.562-21.105,55.252-32.16,82.675
		c-1.57,3.895-5.556,8.028-9.419,9.59c-28.326,11.458-56.902,22.3-85.418,33.287C123.557,233.24,122.017,233.294,121.521,233.387z
		 M198.809,160.21c1.324-11.944-9.801-19.443-18.614-19.539c-9.622-0.104-19.364,8.04-19.338,19.069
		c0.026,11.033,8.766,19.682,18.874,19.19C191.66,178.352,198.77,171.927,198.809,160.21z"/>
</g>
</svg>
