<?xml version="1.0" encoding="utf-8"?>
<!-- Generator: Adobe Illustrator 16.0.0, SVG Export Plug-In . SVG Version: 6.00 Build 0)  -->
<!DOCTYPE svg PUBLIC "-//W3C//DTD SVG 1.1//EN" "http://www.w3.org/Graphics/SVG/1.1/DTD/svg11.dtd">
<svg version="1.1" id="Layer_1" xmlns="http://www.w3.org/2000/svg" xmlns:xlink="http://www.w3.org/1999/xlink" x="0px" y="0px"
	 width="360px" height="317px" viewBox="0 0 360 317" enable-background="new 0 0 360 317" xml:space="preserve">
<g>
	<path fill-rule="evenodd" clip-rule="evenodd" fill="#FFFFFF" d="M60.711,164.138c-0.002-36.488-0.007-72.976,0-109.463
		c0.004-23.88,15.861-39.756,39.784-39.764c60.813-0.02,121.625-0.021,182.438,0c23.114,0.008,39.425,16.164,39.44,39.22
		c0.049,73.475,0.04,146.95,0.004,220.425c-0.009,19.521-10.539,33.375-29.239,38.443c-2.833,0.768-5.917,0.836-8.885,0.839
		c-61.812,0.045-123.625,0.036-185.437,0.034c-21.731,0-37.989-15.957-38.067-37.773C60.618,238.779,60.714,201.458,60.711,164.138z
		 M87.851,163.994c0,36.479-0.005,72.959,0.003,109.439c0.002,10.426,2.872,13.287,13.392,13.289
		c60.133,0.011,120.266,0.012,180.399-0.001c10.67-0.002,13.323-2.664,13.324-13.251c0.005-72.459,0.004-144.919,0-217.378
		c0-11.292-2.505-13.813-13.799-13.814c-59.967-0.009-119.933-0.008-179.899,0c-10.504,0.001-13.415,2.891-13.417,13.278
		C87.845,91.702,87.85,127.848,87.851,163.994z"/>
	<path fill-rule="evenodd" clip-rule="evenodd" fill="#FFFFFF" d="M265.67,136.466c1.73,37.424-31.024,74.794-74.375,74.51
		c-41.374-0.271-74.208-33.223-74.188-74.939c0.021-41.15,32.87-74.079,74.381-74.246C235.259,61.614,267.296,98.815,265.67,136.466
		z M191.28,193.019c1.707-2.455,3.131-4.137,4.154-6.036c6.437-11.947,8.988-24.919,10.182-38.296
		c0.293-3.291-1.229-3.683-3.68-3.682c-4.831,0.002-9.662,0.007-14.493,0.007c-10.477,0-10.554,0.009-9.333,10.17
		C179.69,168.319,183.199,180.809,191.28,193.019z M191.402,79.566c-9.63,15.237-13.183,30.564-13.474,47.278
		c9.466,0,18.466,0,27.795,0C204.722,110.037,201.33,94.506,191.402,79.566z M216.95,186.41c0.813-0.271,2.103-0.463,3.137-1.081
		c13.983-8.347,22.765-20.565,26.882-36.252c0.775-2.956-0.569-4.032-3.261-4.048c-4.991-0.031-9.99,0.156-14.971-0.075
		c-3.543-0.164-4.972,1.192-5.521,4.691C221.321,161.726,219.131,173.76,216.95,186.41z M166.151,186.471
		c-2.182-12.04-4.519-23.226-6.121-34.517c-0.781-5.507-3.194-7.248-8.422-6.735c-3.789,0.372-7.643,0.127-11.467,0.083
		c-3.461-0.04-4.941,1.308-3.89,4.894c4.389,14.97,12.888,26.824,26.368,34.904C163.663,185.726,164.916,186.001,166.151,186.471z
		 M246.662,127.22c0.684-14.46-17.604-39.431-29.618-40.188c2.08,12.007,4.118,24.223,6.41,36.39
		c0.264,1.402,1.89,3.576,2.973,3.629C233.174,127.386,239.947,127.22,246.662,127.22z M166.893,86.199
		c-14.703,4.578-30.615,25.574-30.56,41.007c6.781,0,13.581,0.106,20.368-0.13c0.882-0.031,2.253-1.729,2.459-2.83
		c1.162-6.21,1.828-12.516,3.068-18.708C163.486,99.255,165.214,93.066,166.893,86.199z"/>
	<path fill-rule="evenodd" clip-rule="evenodd" fill="#FFFFFF" d="M191.782,240.125c21.145,0.001,42.289-0.003,63.434,0.003
		c7.445,0.002,10.472,2.573,10.468,8.847c-0.003,5.79-3.335,8.75-10.24,8.755c-42.623,0.034-85.245,0.032-127.867,0.002
		c-7.131-0.005-10.287-2.973-10.203-9.293c0.078-5.907,3.08-8.309,10.474-8.312C149.16,240.118,170.471,240.125,191.782,240.125z"/>
</g>
</svg>
