<?xml version="1.0" encoding="utf-8"?>
<!-- Generator: Adobe Illustrator 16.0.0, SVG Export Plug-In . SVG Version: 6.00 Build 0)  -->
<!DOCTYPE svg PUBLIC "-//W3C//DTD SVG 1.1//EN" "http://www.w3.org/Graphics/SVG/1.1/DTD/svg11.dtd">
<svg version="1.1" id="Layer_1" xmlns="http://www.w3.org/2000/svg" xmlns:xlink="http://www.w3.org/1999/xlink" x="0px" y="0px"
	 width="360px" height="317px" viewBox="0 0 360 317" enable-background="new 0 0 360 317" xml:space="preserve">
<g>
	<path fill-rule="evenodd" clip-rule="evenodd" fill="#FFFFFF" d="M67.702,293.394c6.211-7.176,11.479-13.339,16.83-19.431
		c25.159-28.64,50.293-57.301,75.578-85.83c2.914-3.287,2.832-5.685,0.266-9.013c-17.074-22.155-34.028-44.403-50.994-66.642
		C94.739,93.284,80.128,74.065,65.521,54.844c-0.687-0.904-1.205-1.937-2.233-3.615c2.262-0.252,3.979-0.607,5.696-0.61
		c23.831-0.036,47.661,0.025,71.491-0.073c3.981-0.017,6.624,1.189,9.15,4.573c17.231,23.077,34.743,45.945,52.184,68.865
		c0.99,1.301,2.162,2.464,3.787,4.3c5.08-5.717,9.926-11.095,14.689-16.545c16.652-19.052,33.324-38.087,49.861-57.24
		c2.393-2.771,4.906-4.042,8.579-3.968c9.495,0.189,18.997,0.045,28.495,0.082c1.602,0.006,3.201,0.25,6.104,0.492
		c-3.768,4.481-6.736,8.135-9.834,11.676c-24.997,28.568-49.967,57.159-75.097,85.61c-3.143,3.558-3.606,5.837-0.45,9.985
		c31.459,41.335,62.631,82.888,93.889,124.376c2.391,3.173,4.807,6.326,7.793,10.254c-2.193,0.179-3.556,0.386-4.918,0.387
		c-24.164,0.018-48.329-0.073-72.492,0.1c-3.472,0.025-5.43-1.283-7.396-3.868c-19.748-25.974-39.636-51.842-59.37-77.827
		c-2.564-3.377-4.179-2.022-6.208,0.302c-18.398,21.068-36.824,42.113-55.24,63.165c-4.605,5.265-9.142,10.592-13.864,15.749
		c-1.015,1.108-2.692,2.257-4.08,2.277C93.753,293.467,81.445,293.394,67.702,293.394z M108.988,73.388
		c1.528,2.185,2.149,3.144,2.84,4.049c16.46,21.559,32.938,43.103,49.391,64.667c30.887,40.483,61.825,80.929,92.548,121.536
		c3.449,4.559,6.965,6.953,12.831,6.296c4.78-0.536,9.669-0.109,14.509-0.109c0.13-0.543,0.26-1.087,0.39-1.63
		c-1.161-1.745-2.233-3.557-3.497-5.224c-8.839-11.671-17.744-23.292-26.58-34.966c-38.17-50.431-76.318-100.878-114.512-151.29
		c-0.968-1.278-2.334-3.135-3.573-3.182C125.631,73.242,117.91,73.388,108.988,73.388z"/>
</g>
</svg>
